# xmcd
#
# Track frame offsets:
#       150
#       25582
#       47210
#       64643
#       87858
#       111609
#       127912
#       146207
#       165713
#       182155
#       202000
#       220097
#       235616
#
# Disc length: 3397 seconds
#
#
# Revision: 0
# Processed by: cddbd v1.4PL0 Copyright (c) Steve Scherf et al.
# Submitted via: Visual Ripper tool of Visual MP3 v4.18
#
DISCID=b90d430d
DTITLE=Шатунов Юрий - Седая ночь
DYEAR=2002
DGENRE=Blues
TTITLE0=Седая ночь
TTITLE1=Что же ты, лето?
TTITLE2=Фенечка
TTITLE3=Медленно уходит осень
TTITLE4=Вечер холодной зимы
TTITLE5=Падают листья
TTITLE6=Снег в сентябре
TTITLE7=Облако ночь
TTITLE8=Детство
TTITLE9=Цветы
TTITLE10=Этот вечер
TTITLE11=Я теряю (remix 2002)
TTITLE12=Забудь (remix 2002)
EXTD=
EXTT0=
EXTT1=
EXTT2=
EXTT3=
EXTT4=
EXTT5=
EXTT6=
EXTT7=
EXTT8=
EXTT9=
EXTT10=
EXTT11=
EXTT12=
PLAYORDER=
